<svg xmlns="http://www.w3.org/2000/svg" xmlns:xlink="http://www.w3.org/1999/xlink" width="500" zoomAndPan="magnify" viewBox="0 0 375 374.999991" height="500" preserveAspectRatio="xMidYMid meet" version="1.2"><defs><clipPath id="a86ae0630a"><path d="M 14.195312 114.445312 L 160.445312 114.445312 L 160.445312 260.695312 L 14.195312 260.695312 Z M 14.195312 114.445312 "/></clipPath></defs><g id="79c2e67a54"><g clip-rule="nonzero" clip-path="url(#a86ae0630a)"><path style=" stroke:none;fill-rule:nonzero;fill:#000000;fill-opacity:1;" d="M 160.304688 187.5 C 160.304688 188.695312 160.273438 189.890625 160.214844 191.082031 C 160.15625 192.277344 160.070312 193.46875 159.953125 194.660156 C 159.835938 195.847656 159.6875 197.035156 159.511719 198.21875 C 159.335938 199.402344 159.132812 200.578125 158.898438 201.75 C 158.667969 202.925781 158.40625 204.089844 158.113281 205.25 C 157.824219 206.410156 157.503906 207.5625 157.15625 208.707031 C 156.8125 209.851562 156.4375 210.984375 156.03125 212.109375 C 155.628906 213.234375 155.199219 214.351562 154.742188 215.457031 C 154.285156 216.558594 153.800781 217.652344 153.289062 218.734375 C 152.777344 219.816406 152.242188 220.882812 151.675781 221.9375 C 151.113281 222.992188 150.523438 224.03125 149.910156 225.054688 C 149.296875 226.082031 148.65625 227.09375 147.992188 228.085938 C 147.328125 229.078125 146.640625 230.058594 145.925781 231.019531 C 145.214844 231.976562 144.480469 232.921875 143.722656 233.84375 C 142.960938 234.769531 142.183594 235.671875 141.378906 236.558594 C 140.574219 237.445312 139.75 238.3125 138.90625 239.15625 C 138.0625 240 137.195312 240.824219 136.308594 241.628906 C 135.421875 242.433594 134.519531 243.210938 133.59375 243.972656 C 132.671875 244.730469 131.726562 245.464844 130.765625 246.175781 C 129.808594 246.890625 128.828125 247.578125 127.835938 248.242188 C 126.84375 248.90625 125.832031 249.546875 124.804688 250.160156 C 123.78125 250.773438 122.742188 251.363281 121.6875 251.925781 C 120.632812 252.492188 119.566406 253.027344 118.484375 253.539062 C 117.402344 254.050781 116.308594 254.535156 115.207031 254.992188 C 114.101562 255.449219 112.984375 255.878906 111.859375 256.28125 C 110.734375 256.6875 109.601562 257.0625 108.457031 257.40625 C 107.3125 257.753906 106.160156 258.074219 105 258.363281 C 103.839844 258.65625 102.675781 258.917969 101.5 259.148438 C 100.328125 259.382812 99.152344 259.585938 97.96875 259.761719 C 96.785156 259.9375 95.597656 260.085938 94.410156 260.203125 C 93.21875 260.320312 92.027344 260.40625 90.832031 260.464844 C 89.640625 260.523438 88.445312 260.554688 87.25 260.554688 C 86.054688 260.554688 84.859375 260.523438 83.664062 260.464844 C 82.46875 260.40625 81.277344 260.320312 80.089844 260.203125 C 78.898438 260.085938 77.710938 259.9375 76.53125 259.761719 C 75.347656 259.585938 74.167969 259.382812 72.996094 259.148438 C 71.824219 258.917969 70.65625 258.65625 69.5 258.363281 C 68.339844 258.074219 67.1875 257.753906 66.042969 257.40625 C 64.898438 257.0625 63.761719 256.6875 62.636719 256.28125 C 61.511719 255.878906 60.398438 255.449219 59.292969 254.992188 C 58.1875 254.535156 57.09375 254.050781 56.015625 253.539062 C 54.933594 253.027344 53.867188 252.492188 52.8125 251.925781 C 51.757812 251.363281 50.71875 250.773438 49.691406 250.160156 C 48.664062 249.546875 47.65625 248.90625 46.660156 248.242188 C 45.667969 247.578125 44.691406 246.890625 43.730469 246.175781 C 42.769531 245.464844 41.828125 244.730469 40.902344 243.972656 C 39.980469 243.210938 39.074219 242.433594 38.1875 241.628906 C 37.300781 240.824219 36.4375 240 35.589844 239.15625 C 34.746094 238.3125 33.921875 237.445312 33.117188 236.558594 C 32.316406 235.671875 31.535156 234.769531 30.777344 233.84375 C 30.019531 232.921875 29.28125 231.976562 28.570312 231.019531 C 27.859375 230.058594 27.171875 229.078125 26.507812 228.085938 C 25.84375 227.09375 25.203125 226.082031 24.585938 225.054688 C 23.972656 224.03125 23.382812 222.992188 22.820312 221.9375 C 22.257812 220.882812 21.71875 219.816406 21.207031 218.734375 C 20.695312 217.652344 20.210938 216.558594 19.753906 215.457031 C 19.296875 214.351562 18.867188 213.234375 18.464844 212.109375 C 18.0625 210.984375 17.6875 209.851562 17.339844 208.707031 C 16.992188 207.5625 16.675781 206.410156 16.382812 205.25 C 16.09375 204.089844 15.832031 202.925781 15.597656 201.75 C 15.363281 200.578125 15.160156 199.402344 14.984375 198.21875 C 14.808594 197.035156 14.664062 195.847656 14.546875 194.660156 C 14.429688 193.46875 14.339844 192.277344 14.28125 191.082031 C 14.222656 189.890625 14.195312 188.695312 14.195312 187.5 C 14.195312 186.304688 14.222656 185.109375 14.28125 183.914062 C 14.339844 182.71875 14.429688 181.527344 14.546875 180.339844 C 14.664062 179.148438 14.808594 177.960938 14.984375 176.78125 C 15.160156 175.597656 15.363281 174.417969 15.597656 173.246094 C 15.832031 172.074219 16.09375 170.90625 16.382812 169.75 C 16.675781 168.589844 16.992188 167.4375 17.339844 166.292969 C 17.6875 165.148438 18.0625 164.011719 18.464844 162.886719 C 18.867188 161.761719 19.296875 160.648438 19.753906 159.542969 C 20.210938 158.4375 20.695312 157.34375 21.207031 156.265625 C 21.71875 155.183594 22.257812 154.117188 22.820312 153.0625 C 23.382812 152.007812 23.972656 150.96875 24.585938 149.941406 C 25.203125 148.914062 25.84375 147.90625 26.507812 146.910156 C 27.171875 145.917969 27.859375 144.941406 28.570312 143.980469 C 29.28125 143.019531 30.019531 142.078125 30.777344 141.152344 C 31.535156 140.230469 32.316406 139.324219 33.117188 138.4375 C 33.921875 137.550781 34.746094 136.6875 35.589844 135.839844 C 36.4375 134.996094 37.300781 134.171875 38.1875 133.367188 C 39.074219 132.566406 39.980469 131.785156 40.902344 131.027344 C 41.828125 130.269531 42.769531 129.53125 43.730469 128.820312 C 44.691406 128.109375 45.667969 127.421875 46.660156 126.757812 C 47.65625 126.09375 48.664062 125.453125 49.691406 124.835938 C 50.71875 124.222656 51.757812 123.632812 52.8125 123.070312 C 53.867188 122.507812 54.933594 121.96875 56.015625 121.457031 C 57.09375 120.945312 58.1875 120.460938 59.292969 120.003906 C 60.398438 119.546875 61.511719 119.117188 62.636719 118.714844 C 63.761719 118.3125 64.898438 117.9375 66.042969 117.589844 C 67.1875 117.242188 68.339844 116.925781 69.5 116.632812 C 70.65625 116.34375 71.824219 116.082031 72.996094 115.847656 C 74.167969 115.613281 75.347656 115.410156 76.53125 115.234375 C 77.710938 115.058594 78.898438 114.914062 80.089844 114.796875 C 81.277344 114.679688 82.46875 114.589844 83.664062 114.53125 C 84.859375 114.472656 86.054688 114.445312 87.25 114.445312 C 88.445312 114.445312 89.640625 114.472656 90.832031 114.53125 C 92.027344 114.589844 93.21875 114.679688 94.410156 114.796875 C 95.597656 114.914062 96.785156 115.058594 97.96875 115.234375 C 99.152344 115.410156 100.328125 115.613281 101.5 115.847656 C 102.675781 116.082031 103.839844 116.34375 105 116.632812 C 106.160156 116.925781 107.3125 117.242188 108.457031 117.589844 C 109.601562 117.9375 110.734375 118.3125 111.859375 118.714844 C 112.984375 119.117188 114.101562 119.546875 115.207031 120.003906 C 116.308594 120.460938 117.402344 120.945312 118.484375 121.457031 C 119.566406 121.96875 120.632812 122.507812 121.6875 123.070312 C 122.742188 123.632812 123.78125 124.222656 124.804688 124.835938 C 125.832031 125.453125 126.84375 126.09375 127.835938 126.757812 C 128.828125 127.421875 129.808594 128.109375 130.765625 128.820312 C 131.726562 129.53125 132.671875 130.269531 133.59375 131.027344 C 134.519531 131.785156 135.421875 132.566406 136.308594 133.367188 C 137.195312 134.171875 138.0625 134.996094 138.90625 135.839844 C 139.75 136.6875 140.574219 137.550781 141.378906 138.4375 C 142.183594 139.324219 142.960938 140.230469 143.722656 141.152344 C 144.480469 142.078125 145.214844 143.019531 145.925781 143.980469 C 146.640625 144.941406 147.328125 145.917969 147.992188 146.910156 C 148.65625 147.90625 149.296875 148.914062 149.910156 149.941406 C 150.523438 150.96875 151.113281 152.007812 151.675781 153.0625 C 152.242188 154.117188 152.777344 155.183594 153.289062 156.265625 C 153.800781 157.34375 154.285156 158.4375 154.742188 159.542969 C 155.199219 160.648438 155.628906 161.761719 156.03125 162.886719 C 156.4375 164.011719 156.8125 165.148438 157.15625 166.292969 C 157.503906 167.4375 157.824219 168.589844 158.113281 169.75 C 158.40625 170.90625 158.667969 172.074219 158.898438 173.246094 C 159.132812 174.417969 159.335938 175.597656 159.511719 176.78125 C 159.6875 177.960938 159.835938 179.148438 159.953125 180.339844 C 160.070312 181.527344 160.15625 182.71875 160.214844 183.914062 C 160.273438 185.109375 160.304688 186.304688 160.304688 187.5 Z M 160.304688 187.5 "/></g><path style=" stroke:none;fill-rule:nonzero;fill:#e0e7ff;fill-opacity:1;" d="M 155.832031 187.5 C 155.832031 188.621094 155.804688 189.742188 155.75 190.863281 C 155.691406 191.984375 155.609375 193.105469 155.5 194.222656 C 155.390625 195.339844 155.253906 196.453125 155.089844 197.5625 C 154.925781 198.671875 154.730469 199.777344 154.511719 200.878906 C 154.292969 201.980469 154.046875 203.074219 153.777344 204.164062 C 153.503906 205.25 153.203125 206.332031 152.878906 207.40625 C 152.550781 208.480469 152.199219 209.546875 151.820312 210.605469 C 151.445312 211.660156 151.039062 212.707031 150.609375 213.746094 C 150.179688 214.78125 149.726562 215.808594 149.246094 216.820312 C 148.765625 217.835938 148.261719 218.839844 147.734375 219.828125 C 147.203125 220.816406 146.652344 221.792969 146.074219 222.757812 C 145.496094 223.71875 144.894531 224.667969 144.273438 225.601562 C 143.648438 226.535156 143.003906 227.453125 142.335938 228.351562 C 141.664062 229.253906 140.976562 230.140625 140.261719 231.007812 C 139.550781 231.875 138.820312 232.722656 138.066406 233.554688 C 137.3125 234.386719 136.539062 235.199219 135.742188 235.992188 C 134.949219 236.789062 134.136719 237.5625 133.304688 238.316406 C 132.472656 239.070312 131.625 239.800781 130.757812 240.511719 C 129.890625 241.226562 129.003906 241.914062 128.101562 242.585938 C 127.203125 243.253906 126.285156 243.898438 125.351562 244.523438 C 124.417969 245.144531 123.46875 245.746094 122.507812 246.324219 C 121.542969 246.902344 120.566406 247.453125 119.578125 247.984375 C 118.589844 248.511719 117.585938 249.015625 116.570312 249.496094 C 115.558594 249.976562 114.53125 250.429688 113.492188 250.859375 C 112.457031 251.289062 111.410156 251.695312 110.351562 252.070312 C 109.296875 252.449219 108.230469 252.800781 107.15625 253.128906 C 106.082031 253.453125 105 253.753906 103.914062 254.027344 C 102.824219 254.296875 101.730469 254.542969 100.628906 254.761719 C 99.527344 254.980469 98.421875 255.175781 97.3125 255.339844 C 96.203125 255.503906 95.089844 255.640625 93.972656 255.75 C 92.855469 255.859375 91.734375 255.941406 90.613281 256 C 89.492188 256.054688 88.371094 256.082031 87.25 256.082031 C 86.125 256.082031 85.003906 256.054688 83.882812 256 C 82.761719 255.941406 81.644531 255.859375 80.527344 255.75 C 79.410156 255.640625 78.296875 255.503906 77.1875 255.339844 C 76.074219 255.175781 74.96875 254.980469 73.871094 254.761719 C 72.769531 254.542969 71.671875 254.296875 70.585938 254.027344 C 69.496094 253.753906 68.414062 253.453125 67.339844 253.128906 C 66.265625 252.800781 65.199219 252.449219 64.144531 252.070312 C 63.085938 251.695312 62.039062 251.289062 61.003906 250.859375 C 59.96875 250.429688 58.941406 249.976562 57.925781 249.496094 C 56.910156 249.015625 55.910156 248.511719 54.917969 247.984375 C 53.929688 247.453125 52.953125 246.902344 51.992188 246.324219 C 51.027344 245.746094 50.082031 245.144531 49.148438 244.523438 C 48.214844 243.898438 47.296875 243.253906 46.394531 242.585938 C 45.492188 241.914062 44.609375 241.226562 43.742188 240.511719 C 42.875 239.800781 42.023438 239.070312 41.191406 238.316406 C 40.359375 237.5625 39.546875 236.789062 38.753906 235.992188 C 37.960938 235.199219 37.1875 234.386719 36.433594 233.554688 C 35.679688 232.722656 34.945312 231.875 34.234375 231.007812 C 33.523438 230.140625 32.832031 229.253906 32.164062 228.351562 C 31.496094 227.453125 30.847656 226.535156 30.226562 225.601562 C 29.601562 224.667969 29 223.71875 28.425781 222.757812 C 27.847656 221.792969 27.292969 220.816406 26.765625 219.828125 C 26.234375 218.839844 25.730469 217.835938 25.25 216.820312 C 24.773438 215.808594 24.316406 214.78125 23.886719 213.746094 C 23.457031 212.707031 23.054688 211.660156 22.675781 210.605469 C 22.296875 209.546875 21.945312 208.480469 21.621094 207.40625 C 21.292969 206.332031 20.996094 205.25 20.722656 204.164062 C 20.449219 203.074219 20.203125 201.980469 19.984375 200.878906 C 19.765625 199.777344 19.574219 198.671875 19.410156 197.5625 C 19.246094 196.453125 19.105469 195.339844 18.996094 194.222656 C 18.886719 193.105469 18.804688 191.984375 18.75 190.863281 C 18.695312 189.742188 18.667969 188.621094 18.667969 187.5 C 18.667969 186.375 18.695312 185.253906 18.75 184.132812 C 18.804688 183.011719 18.886719 181.894531 18.996094 180.777344 C 19.105469 179.660156 19.246094 178.546875 19.410156 177.4375 C 19.574219 176.324219 19.765625 175.21875 19.984375 174.121094 C 20.203125 173.019531 20.449219 171.921875 20.722656 170.835938 C 20.996094 169.746094 21.292969 168.664062 21.621094 167.589844 C 21.945312 166.515625 22.296875 165.453125 22.675781 164.394531 C 23.054688 163.335938 23.457031 162.289062 23.886719 161.253906 C 24.316406 160.21875 24.773438 159.191406 25.25 158.175781 C 25.730469 157.160156 26.234375 156.160156 26.765625 155.167969 C 27.292969 154.179688 27.847656 153.203125 28.425781 152.242188 C 29 151.277344 29.601562 150.332031 30.226562 149.398438 C 30.847656 148.464844 31.496094 147.546875 32.164062 146.644531 C 32.832031 145.742188 33.523438 144.859375 34.234375 143.992188 C 34.945312 143.125 35.679688 142.273438 36.433594 141.441406 C 37.1875 140.609375 37.960938 139.796875 38.753906 139.003906 C 39.546875 138.210938 40.359375 137.4375 41.191406 136.683594 C 42.023438 135.929688 42.875 135.195312 43.742188 134.484375 C 44.609375 133.773438 45.492188 133.082031 46.394531 132.414062 C 47.296875 131.746094 48.214844 131.097656 49.148438 130.476562 C 50.082031 129.851562 51.027344 129.25 51.992188 128.675781 C 52.953125 128.097656 53.929688 127.542969 54.917969 127.015625 C 55.910156 126.484375 56.910156 125.980469 57.925781 125.5 C 58.941406 125.023438 59.96875 124.566406 61.003906 124.136719 C 62.039062 123.707031 63.085938 123.304688 64.144531 122.925781 C 65.199219 122.546875 66.265625 122.195312 67.339844 121.871094 C 68.414062 121.542969 69.496094 121.246094 70.585938 120.972656 C 71.671875 120.699219 72.769531 120.453125 73.871094 120.234375 C 74.96875 120.015625 76.074219 119.824219 77.1875 119.660156 C 78.296875 119.496094 79.410156 119.355469 80.527344 119.246094 C 81.644531 119.136719 82.761719 119.054688 83.882812 119 C 85.003906 118.945312 86.125 118.917969 87.25 118.917969 C 88.371094 118.917969 89.492188 118.945312 90.613281 119 C 91.734375 119.054688 92.855469 119.136719 93.972656 119.246094 C 95.089844 119.355469 96.203125 119.496094 97.3125 119.660156 C 98.421875 119.824219 99.527344 120.015625 100.628906 120.234375 C 101.730469 120.453125 102.824219 120.699219 103.914062 120.972656 C 105 121.246094 106.082031 121.542969 107.15625 121.871094 C 108.230469 122.195312 109.296875 122.546875 110.351562 122.925781 C 111.410156 123.304688 112.457031 123.707031 113.492188 124.136719 C 114.53125 124.566406 115.558594 125.023438 116.570312 125.5 C 117.585938 125.980469 118.589844 126.484375 119.578125 127.015625 C 120.566406 127.542969 121.542969 128.097656 122.507812 128.675781 C 123.46875 129.25 124.417969 129.851562 125.351562 130.476562 C 126.285156 131.097656 127.203125 131.746094 128.101562 132.414062 C 129.003906 133.082031 129.890625 133.773438 130.757812 134.484375 C 131.625 135.195312 132.472656 135.929688 133.304688 136.683594 C 134.136719 137.4375 134.949219 138.210938 135.742188 139.003906 C 136.539062 139.796875 137.3125 140.609375 138.066406 141.441406 C 138.820312 142.273438 139.550781 143.125 140.261719 143.992188 C 140.976562 144.859375 141.664062 145.742188 142.335938 146.644531 C 143.003906 147.546875 143.648438 148.464844 144.273438 149.398438 C 144.894531 150.332031 145.496094 151.277344 146.074219 152.242188 C 146.652344 153.203125 147.203125 154.179688 147.734375 155.167969 C 148.261719 156.160156 148.765625 157.160156 149.246094 158.175781 C 149.726562 159.191406 150.179688 160.21875 150.609375 161.253906 C 151.039062 162.289062 151.445312 163.335938 151.820312 164.394531 C 152.199219 165.453125 152.550781 166.515625 152.878906 167.589844 C 153.203125 168.664062 153.503906 169.746094 153.777344 170.835938 C 154.046875 171.921875 154.292969 173.019531 154.511719 174.121094 C 154.730469 175.21875 154.925781 176.324219 155.089844 177.4375 C 155.253906 178.546875 155.390625 179.660156 155.5 180.777344 C 155.609375 181.894531 155.691406 183.011719 155.75 184.132812 C 155.804688 185.253906 155.832031 186.375 155.832031 187.5 Z M 155.832031 187.5 "/><path style=" stroke:none;fill-rule:nonzero;fill:#000000;fill-opacity:1;" d="M 107.28125 230.84375 C 106.078125 230.859375 105.023438 229.816406 105.042969 228.605469 C 105.042969 228.605469 105.042969 204.703125 105.042969 204.703125 L 69.453125 204.703125 L 69.453125 228.605469 C 69.519531 230.519531 66.980469 231.59375 65.65625 230.207031 C 65.65625 230.207031 50.269531 215.222656 50.269531 215.222656 C 49.839844 214.800781 49.597656 214.222656 49.597656 213.621094 L 49.597656 150.535156 C 49.597656 149.4375 50.390625 148.5 51.476562 148.328125 C 52.53125 148.15625 77.394531 144.152344 87.25 144.152344 C 97.101562 144.152344 121.964844 148.15625 123.019531 148.328125 C 124.105469 148.5 124.902344 149.4375 124.902344 150.535156 L 124.902344 213.621094 C 124.902344 214.222656 124.65625 214.800781 124.226562 215.222656 L 108.839844 230.207031 C 108.414062 230.625 107.851562 230.84375 107.28125 230.84375 Z M 107.28125 230.84375 "/><path style=" stroke:none;fill-rule:nonzero;fill:#ffffff;fill-opacity:1;" d="M 67.214844 200.230469 L 107.28125 200.230469 C 108.515625 200.230469 109.515625 201.234375 109.515625 202.46875 L 109.515625 223.308594 L 120.425781 212.679688 L 120.425781 152.445312 C 114.359375 151.5 95.226562 148.625 87.25 148.625 C 79.269531 148.625 60.136719 151.5 54.070312 152.445312 L 54.070312 212.679688 L 64.980469 223.308594 L 64.980469 202.46875 C 64.980469 201.234375 65.980469 200.230469 67.214844 200.230469 Z M 67.214844 200.230469 "/><path style=" stroke:none;fill-rule:nonzero;fill:#000000;fill-opacity:1;" d="M 107.28125 188.125 L 67.214844 188.125 C 65.980469 188.125 64.980469 187.125 64.980469 185.890625 L 64.980469 165.808594 C 64.980469 164.660156 65.855469 163.695312 67 163.582031 C 86.917969 161.785156 87.574219 161.785156 107.492188 163.582031 C 108.640625 163.695312 109.515625 164.660156 109.515625 165.808594 L 109.515625 185.890625 C 109.515625 187.125 108.515625 188.125 107.28125 188.125 Z M 107.28125 188.125 "/><path style=" stroke:none;fill-rule:nonzero;fill:#e0e7ff;fill-opacity:1;" d="M 69.453125 183.652344 L 105.042969 183.652344 L 105.042969 167.84375 C 97.027344 167.09375 90.898438 166.699219 87.246094 166.699219 C 83.59375 166.699219 77.46875 167.09375 69.449219 167.84375 L 69.449219 183.652344 Z M 69.453125 183.652344 "/><path style=" stroke:none;fill-rule:nonzero;fill:#000000;fill-opacity:1;" d="M 171.285156 200.511719 L 357.148438 200.511719 L 357.148438 203.90625 L 171.285156 203.90625 Z M 171.285156 200.511719 "/><g style="fill:#000000;fill-opacity:1;"><g transform="translate(171.284379, 198.249049)"><path style="stroke:none" d="M 0.390625 0 C 0.128906 0 0 -0.128906 0 -0.390625 L 0 -15.421875 C 0 -16.554688 0.375 -17.5 1.125 -18.25 C 1.875 -19 2.816406 -19.375 3.953125 -19.375 L 23.15625 -19.375 C 24.300781 -19.375 25.242188 -19 25.984375 -18.25 C 26.734375 -17.5 27.109375 -16.554688 27.109375 -15.421875 L 27.109375 -0.390625 C 27.109375 -0.128906 26.984375 0 26.734375 0 L 23.625 0 C 23.363281 0 23.234375 -0.128906 23.234375 -0.390625 L 23.234375 -7.75 L 3.875 -7.75 L 3.875 -0.390625 C 3.875 -0.128906 3.742188 0 3.484375 0 Z M 3.875 -11.625 L 23.234375 -11.625 L 23.234375 -14.71875 C 23.234375 -14.925781 23.15625 -15.109375 23 -15.265625 C 22.851562 -15.421875 22.675781 -15.5 22.46875 -15.5 L 4.640625 -15.5 C 4.441406 -15.5 4.265625 -15.421875 4.109375 -15.265625 C 3.953125 -15.109375 3.875 -14.925781 3.875 -14.71875 Z M 3.875 -11.625 "/></g></g><g style="fill:#000000;fill-opacity:1;"><g transform="translate(202.258683, 198.249049)"><path style="stroke:none" d="M 0.390625 0 C 0.128906 0 0 -0.128906 0 -0.390625 L 0 -3.484375 C 0 -3.742188 0.128906 -3.875 0.390625 -3.875 L 22.46875 -3.875 C 22.675781 -3.875 22.851562 -3.953125 23 -4.109375 C 23.15625 -4.265625 23.234375 -4.441406 23.234375 -4.640625 L 23.234375 -6.96875 C 23.234375 -7.175781 23.15625 -7.359375 23 -7.515625 C 22.851562 -7.671875 22.675781 -7.75 22.46875 -7.75 L 3.953125 -7.75 C 2.816406 -7.75 1.875 -8.125 1.125 -8.875 C 0.375 -9.625 0 -10.566406 0 -11.703125 L 0 -15.421875 C 0 -16.554688 0.375 -17.5 1.125 -18.25 C 1.875 -19 2.816406 -19.375 3.953125 -19.375 L 26.734375 -19.375 C 26.984375 -19.375 27.109375 -19.242188 27.109375 -18.984375 L 27.109375 -15.875 C 27.109375 -15.625 26.984375 -15.5 26.734375 -15.5 L 4.640625 -15.5 C 4.441406 -15.5 4.265625 -15.421875 4.109375 -15.265625 C 3.953125 -15.109375 3.875 -14.925781 3.875 -14.71875 L 3.875 -12.390625 C 3.875 -12.179688 3.953125 -12 4.109375 -11.84375 C 4.265625 -11.695312 4.441406 -11.625 4.640625 -11.625 L 23.15625 -11.625 C 24.300781 -11.625 25.242188 -11.25 25.984375 -10.5 C 26.734375 -9.75 27.109375 -8.804688 27.109375 -7.671875 L 27.109375 -3.953125 C 27.109375 -2.816406 26.734375 -1.875 25.984375 -1.125 C 25.242188 -0.375 24.300781 0 23.15625 0 Z M 0.390625 0 "/></g></g><g style="fill:#000000;fill-opacity:1;"><g transform="translate(233.232987, 198.249049)"><path style="stroke:none" d="M 0.390625 0 C 0.128906 0 0 -0.128906 0 -0.390625 L 0 -18.984375 C 0 -19.242188 0.128906 -19.375 0.390625 -19.375 L 3.484375 -19.375 C 3.742188 -19.375 3.875 -19.242188 3.875 -18.984375 L 3.875 -11.625 L 23.234375 -11.625 L 23.234375 -18.984375 C 23.234375 -19.242188 23.363281 -19.375 23.625 -19.375 L 26.734375 -19.375 C 26.984375 -19.375 27.109375 -19.242188 27.109375 -18.984375 L 27.109375 -0.390625 C 27.109375 -0.128906 26.984375 0 26.734375 0 L 23.625 0 C 23.363281 0 23.234375 -0.128906 23.234375 -0.390625 L 23.234375 -7.75 L 3.875 -7.75 L 3.875 -0.390625 C 3.875 -0.128906 3.742188 0 3.484375 0 Z M 0.390625 0 "/></g></g><g style="fill:#000000;fill-opacity:1;"><g transform="translate(264.207291, 198.249049)"><path style="stroke:none" d="M 0.390625 0 C 0.128906 0 0 -0.128906 0 -0.390625 L 0 -18.984375 C 0 -19.242188 0.128906 -19.375 0.390625 -19.375 L 23.15625 -19.375 C 24.300781 -19.375 25.242188 -19 25.984375 -18.25 C 26.734375 -17.5 27.109375 -16.554688 27.109375 -15.421875 L 27.109375 -11.703125 C 27.109375 -10.566406 26.734375 -9.625 25.984375 -8.875 C 25.242188 -8.125 24.300781 -7.75 23.15625 -7.75 L 22.78125 -7.75 L 25.484375 0 L 21.21875 0 L 18.515625 -7.75 L 3.875 -7.75 L 3.875 -0.390625 C 3.875 -0.128906 3.742188 0 3.484375 0 Z M 3.875 -11.625 L 22.46875 -11.625 C 22.675781 -11.625 22.851562 -11.695312 23 -11.84375 C 23.15625 -12 23.234375 -12.179688 23.234375 -12.390625 L 23.234375 -14.71875 C 23.234375 -14.925781 23.15625 -15.109375 23 -15.265625 C 22.851562 -15.421875 22.675781 -15.5 22.46875 -15.5 L 3.875 -15.5 Z M 3.875 -11.625 "/></g></g><g style="fill:#000000;fill-opacity:1;"><g transform="translate(295.181595, 198.249049)"><path style="stroke:none" d="M 12 0 C 11.75 0 11.625 -0.128906 11.625 -0.390625 L 11.625 -15.5 L 0.390625 -15.5 C 0.128906 -15.5 0 -15.625 0 -15.875 L 0 -18.984375 C 0 -19.242188 0.128906 -19.375 0.390625 -19.375 L 26.734375 -19.375 C 26.984375 -19.375 27.109375 -19.242188 27.109375 -18.984375 L 27.109375 -15.875 C 27.109375 -15.625 26.984375 -15.5 26.734375 -15.5 L 15.5 -15.5 L 15.5 -0.390625 C 15.5 -0.128906 15.367188 0 15.109375 0 Z M 12 0 "/></g></g><g style="fill:#000000;fill-opacity:1;"><g transform="translate(326.155899, 198.249049)"><path style="stroke:none" d="M 3.953125 0 C 2.816406 0 1.875 -0.375 1.125 -1.125 C 0.375 -1.875 0 -2.816406 0 -3.953125 L 0 -18.984375 C 0 -19.242188 0.128906 -19.375 0.390625 -19.375 L 3.484375 -19.375 C 3.742188 -19.375 3.875 -19.242188 3.875 -18.984375 L 3.875 -4.640625 C 3.875 -4.441406 3.953125 -4.265625 4.109375 -4.109375 C 4.265625 -3.953125 4.441406 -3.875 4.640625 -3.875 L 26.734375 -3.875 C 26.984375 -3.875 27.109375 -3.742188 27.109375 -3.484375 L 27.109375 -0.390625 C 27.109375 -0.128906 26.984375 0 26.734375 0 Z M 3.953125 0 "/></g></g></g></svg>