<svg xmlns="http://www.w3.org/2000/svg" xmlns:xlink="http://www.w3.org/1999/xlink" width="300" zoomAndPan="magnify" viewBox="0 0 224.87999 74.999997" height="100" preserveAspectRatio="xMidYMid meet" version="1.2"><defs><clipPath id="3294c7926b"><path d="M 18.953125 4.703125 L 89.414062 4.703125 L 89.414062 74.980469 L 18.953125 74.980469 Z M 18.953125 4.703125 "/></clipPath></defs><g id="2118faf1d4"><g clip-rule="nonzero" clip-path="url(#3294c7926b)"><path style=" stroke:none;fill-rule:nonzero;fill:#000000;fill-opacity:1;" d="M 89.226562 39.839844 C 89.226562 40.992188 89.171875 42.140625 89.058594 43.285156 C 88.945312 44.429688 88.777344 45.566406 88.550781 46.695312 C 88.328125 47.824219 88.046875 48.941406 87.714844 50.039062 C 87.378906 51.140625 86.992188 52.222656 86.550781 53.289062 C 86.113281 54.351562 85.621094 55.390625 85.078125 56.40625 C 84.535156 57.417969 83.945312 58.40625 83.304688 59.363281 C 82.664062 60.320312 81.980469 61.242188 81.25 62.132812 C 80.519531 63.023438 79.75 63.875 78.933594 64.6875 C 78.121094 65.5 77.269531 66.273438 76.378906 67.003906 C 75.492188 67.734375 74.566406 68.417969 73.609375 69.058594 C 72.652344 69.695312 71.667969 70.285156 70.652344 70.828125 C 69.636719 71.371094 68.597656 71.863281 67.535156 72.304688 C 66.472656 72.746094 65.390625 73.132812 64.289062 73.464844 C 63.1875 73.800781 62.074219 74.078125 60.945312 74.304688 C 59.816406 74.527344 58.679688 74.695312 57.53125 74.808594 C 56.386719 74.921875 55.238281 74.980469 54.089844 74.980469 C 52.9375 74.980469 51.789062 74.921875 50.644531 74.808594 C 49.5 74.695312 48.363281 74.527344 47.234375 74.304688 C 46.105469 74.078125 44.992188 73.800781 43.890625 73.464844 C 42.789062 73.132812 41.707031 72.746094 40.640625 72.304688 C 39.578125 71.863281 38.539062 71.371094 37.523438 70.828125 C 36.511719 70.285156 35.523438 69.695312 34.566406 69.058594 C 33.609375 68.417969 32.6875 67.734375 31.796875 67.003906 C 30.910156 66.273438 30.058594 65.5 29.242188 64.6875 C 28.429688 63.875 27.65625 63.023438 26.925781 62.132812 C 26.199219 61.242188 25.511719 60.320312 24.875 59.363281 C 24.234375 58.40625 23.644531 57.417969 23.101562 56.40625 C 22.558594 55.390625 22.066406 54.351562 21.625 53.289062 C 21.1875 52.222656 20.796875 51.140625 20.464844 50.039062 C 20.128906 48.941406 19.851562 47.824219 19.625 46.695312 C 19.402344 45.566406 19.234375 44.429688 19.121094 43.285156 C 19.007812 42.140625 18.953125 40.992188 18.953125 39.839844 C 18.953125 38.691406 19.007812 37.542969 19.121094 36.398438 C 19.234375 35.25 19.402344 34.113281 19.625 32.984375 C 19.851562 31.855469 20.128906 30.742188 20.464844 29.640625 C 20.796875 28.539062 21.1875 27.457031 21.625 26.394531 C 22.066406 25.332031 22.558594 24.292969 23.101562 23.277344 C 23.644531 22.261719 24.234375 21.277344 24.875 20.320312 C 25.511719 19.363281 26.199219 18.441406 26.925781 17.550781 C 27.65625 16.660156 28.429688 15.808594 29.242188 14.996094 C 30.058594 14.179688 30.910156 13.410156 31.796875 12.679688 C 32.6875 11.949219 33.609375 11.265625 34.566406 10.625 C 35.523438 9.984375 36.511719 9.394531 37.523438 8.851562 C 38.539062 8.308594 39.578125 7.820312 40.640625 7.378906 C 41.707031 6.9375 42.789062 6.550781 43.890625 6.214844 C 44.992188 5.882812 46.105469 5.601562 47.234375 5.378906 C 48.363281 5.152344 49.5 4.984375 50.644531 4.871094 C 51.789062 4.761719 52.9375 4.703125 54.089844 4.703125 C 55.238281 4.703125 56.386719 4.761719 57.53125 4.871094 C 58.679688 4.984375 59.816406 5.152344 60.945312 5.378906 C 62.074219 5.601562 63.1875 5.882812 64.289062 6.214844 C 65.390625 6.550781 66.472656 6.9375 67.535156 7.378906 C 68.597656 7.820312 69.636719 8.308594 70.652344 8.851562 C 71.667969 9.394531 72.652344 9.984375 73.609375 10.625 C 74.566406 11.265625 75.492188 11.949219 76.378906 12.679688 C 77.269531 13.410156 78.121094 14.179688 78.933594 14.996094 C 79.75 15.808594 80.519531 16.660156 81.25 17.550781 C 81.980469 18.441406 82.664062 19.363281 83.304688 20.320312 C 83.945312 21.277344 84.535156 22.261719 85.078125 23.277344 C 85.621094 24.292969 86.113281 25.332031 86.550781 26.394531 C 86.992188 27.457031 87.378906 28.539062 87.714844 29.640625 C 88.046875 30.742188 88.328125 31.855469 88.550781 32.984375 C 88.777344 34.113281 88.945312 35.25 89.058594 36.398438 C 89.171875 37.542969 89.226562 38.691406 89.226562 39.839844 Z M 89.226562 39.839844 "/></g><path style=" stroke:none;fill-rule:nonzero;fill:#e0e7ff;fill-opacity:1;" d="M 87.074219 39.839844 C 87.074219 40.921875 87.023438 42 86.917969 43.074219 C 86.808594 44.148438 86.652344 45.214844 86.441406 46.277344 C 86.230469 47.335938 85.96875 48.382812 85.65625 49.417969 C 85.339844 50.449219 84.976562 51.464844 84.5625 52.464844 C 84.152344 53.460938 83.691406 54.4375 83.179688 55.390625 C 82.671875 56.34375 82.117188 57.269531 81.515625 58.167969 C 80.914062 59.066406 80.273438 59.933594 79.585938 60.765625 C 78.902344 61.601562 78.175781 62.402344 77.414062 63.164062 C 76.648438 63.929688 75.851562 64.65625 75.015625 65.339844 C 74.179688 66.023438 73.3125 66.667969 72.414062 67.269531 C 71.515625 67.867188 70.589844 68.421875 69.636719 68.933594 C 68.6875 69.441406 67.710938 69.902344 66.710938 70.316406 C 65.714844 70.730469 64.699219 71.09375 63.664062 71.40625 C 62.628906 71.71875 61.582031 71.984375 60.523438 72.195312 C 59.464844 72.402344 58.398438 72.5625 57.320312 72.667969 C 56.246094 72.773438 55.167969 72.828125 54.089844 72.828125 C 53.007812 72.828125 51.929688 72.773438 50.855469 72.667969 C 49.78125 72.5625 48.714844 72.402344 47.652344 72.195312 C 46.59375 71.984375 45.546875 71.71875 44.511719 71.40625 C 43.480469 71.09375 42.464844 70.730469 41.464844 70.316406 C 40.46875 69.902344 39.492188 69.441406 38.539062 68.933594 C 37.585938 68.421875 36.660156 67.867188 35.761719 67.269531 C 34.863281 66.667969 33.996094 66.023438 33.164062 65.339844 C 32.328125 64.65625 31.527344 63.929688 30.765625 63.164062 C 30 62.402344 29.277344 61.601562 28.589844 60.765625 C 27.90625 59.933594 27.261719 59.066406 26.660156 58.167969 C 26.0625 57.269531 25.507812 56.34375 24.996094 55.390625 C 24.488281 54.4375 24.027344 53.460938 23.613281 52.464844 C 23.199219 51.464844 22.835938 50.449219 22.523438 49.417969 C 22.210938 48.382812 21.949219 47.335938 21.738281 46.277344 C 21.527344 45.214844 21.367188 44.148438 21.261719 43.074219 C 21.15625 42 21.101562 40.921875 21.101562 39.839844 C 21.101562 38.761719 21.15625 37.683594 21.261719 36.609375 C 21.367188 35.53125 21.527344 34.464844 21.738281 33.40625 C 21.949219 32.347656 22.210938 31.300781 22.523438 30.265625 C 22.835938 29.230469 23.199219 28.214844 23.613281 27.21875 C 24.027344 26.21875 24.488281 25.246094 24.996094 24.292969 C 25.507812 23.339844 26.0625 22.414062 26.660156 21.515625 C 27.261719 20.617188 27.90625 19.75 28.589844 18.914062 C 29.277344 18.078125 30 17.28125 30.765625 16.515625 C 31.527344 15.753906 32.328125 15.027344 33.164062 14.34375 C 33.996094 13.65625 34.863281 13.015625 35.761719 12.414062 C 36.660156 11.8125 37.585938 11.257812 38.539062 10.75 C 39.492188 10.242188 40.46875 9.777344 41.464844 9.367188 C 42.464844 8.953125 43.480469 8.589844 44.511719 8.273438 C 45.546875 7.960938 46.59375 7.699219 47.652344 7.488281 C 48.714844 7.277344 49.78125 7.121094 50.855469 7.011719 C 51.929688 6.90625 53.007812 6.855469 54.089844 6.855469 C 55.167969 6.855469 56.246094 6.90625 57.320312 7.011719 C 58.398438 7.121094 59.464844 7.277344 60.523438 7.488281 C 61.582031 7.699219 62.628906 7.960938 63.664062 8.273438 C 64.699219 8.589844 65.714844 8.953125 66.710938 9.367188 C 67.710938 9.777344 68.6875 10.242188 69.636719 10.75 C 70.589844 11.257812 71.515625 11.8125 72.414062 12.414062 C 73.3125 13.015625 74.179688 13.65625 75.015625 14.34375 C 75.851562 15.027344 76.648438 15.753906 77.414062 16.515625 C 78.175781 17.28125 78.902344 18.078125 79.585938 18.914062 C 80.273438 19.75 80.914062 20.617188 81.515625 21.515625 C 82.117188 22.414062 82.671875 23.339844 83.179688 24.292969 C 83.691406 25.246094 84.152344 26.21875 84.5625 27.21875 C 84.976562 28.214844 85.339844 29.230469 85.65625 30.265625 C 85.96875 31.300781 86.230469 32.347656 86.441406 33.40625 C 86.652344 34.464844 86.808594 35.53125 86.917969 36.609375 C 87.023438 37.683594 87.074219 38.761719 87.074219 39.839844 Z M 87.074219 39.839844 "/><path style=" stroke:none;fill-rule:nonzero;fill:#000000;fill-opacity:1;" d="M 63.722656 60.6875 C 63.144531 60.695312 62.640625 60.195312 62.648438 59.613281 C 62.648438 59.613281 62.648438 48.117188 62.648438 48.117188 L 45.527344 48.117188 L 45.527344 59.613281 C 45.5625 60.53125 44.339844 61.050781 43.703125 60.382812 C 43.703125 60.382812 36.304688 53.175781 36.304688 53.175781 C 36.097656 52.972656 35.980469 52.695312 35.980469 52.40625 L 35.980469 22.0625 C 35.980469 21.535156 36.363281 21.085938 36.882812 21 C 37.390625 20.917969 49.347656 18.992188 54.089844 18.992188 C 58.828125 18.992188 70.789062 20.917969 71.292969 21 C 71.816406 21.085938 72.199219 21.535156 72.199219 22.0625 L 72.199219 52.40625 C 72.199219 52.695312 72.082031 52.972656 71.875 53.175781 L 64.472656 60.382812 C 64.269531 60.582031 64 60.6875 63.722656 60.6875 Z M 63.722656 60.6875 "/><path style=" stroke:none;fill-rule:nonzero;fill:#ffffff;fill-opacity:1;" d="M 44.453125 45.964844 L 63.722656 45.964844 C 64.316406 45.964844 64.796875 46.445312 64.796875 47.039062 L 64.796875 57.0625 L 70.046875 51.953125 L 70.046875 22.980469 C 67.128906 22.527344 57.925781 21.144531 54.089844 21.144531 C 50.25 21.144531 41.050781 22.527344 38.128906 22.980469 L 38.128906 51.953125 L 43.378906 57.0625 L 43.378906 47.039062 C 43.378906 46.445312 43.859375 45.964844 44.453125 45.964844 Z M 44.453125 45.964844 "/><path style=" stroke:none;fill-rule:nonzero;fill:#000000;fill-opacity:1;" d="M 63.722656 40.144531 L 44.453125 40.144531 C 43.859375 40.144531 43.378906 39.660156 43.378906 39.066406 L 43.378906 29.410156 C 43.378906 28.855469 43.796875 28.390625 44.347656 28.339844 C 53.929688 27.472656 54.246094 27.472656 63.828125 28.339844 C 64.378906 28.390625 64.796875 28.855469 64.796875 29.410156 L 64.796875 39.066406 C 64.800781 39.660156 64.316406 40.144531 63.722656 40.144531 Z M 63.722656 40.144531 "/><path style=" stroke:none;fill-rule:nonzero;fill:#e0e7ff;fill-opacity:1;" d="M 45.527344 37.992188 L 62.648438 37.992188 L 62.648438 30.386719 C 58.792969 30.027344 55.84375 29.835938 54.089844 29.835938 C 52.332031 29.835938 49.382812 30.027344 45.527344 30.386719 Z M 45.527344 37.992188 "/><path style=" stroke:none;fill-rule:nonzero;fill:#000000;fill-opacity:1;" d="M 94.242188 48.011719 L 210.925781 48.011719 L 210.925781 50.140625 L 94.242188 50.140625 Z M 94.242188 48.011719 "/><g style="fill:#000000;fill-opacity:1;"><g transform="translate(94.243839, 46.589848)"><path style="stroke:none" d="M 0.25 0 C 0.0820312 0 0 -0.0820312 0 -0.25 L 0 -9.671875 C 0 -10.390625 0.234375 -10.984375 0.703125 -11.453125 C 1.171875 -11.921875 1.765625 -12.15625 2.484375 -12.15625 L 14.53125 -12.15625 C 15.25 -12.15625 15.84375 -11.921875 16.3125 -11.453125 C 16.78125 -10.984375 17.015625 -10.390625 17.015625 -9.671875 L 17.015625 -0.25 C 17.015625 -0.0820312 16.9375 0 16.78125 0 L 14.828125 0 C 14.671875 0 14.59375 -0.0820312 14.59375 -0.25 L 14.59375 -4.859375 L 2.4375 -4.859375 L 2.4375 -0.25 C 2.4375 -0.0820312 2.351562 0 2.1875 0 Z M 2.4375 -7.296875 L 14.59375 -7.296875 L 14.59375 -9.234375 C 14.59375 -9.367188 14.539062 -9.484375 14.4375 -9.578125 C 14.34375 -9.671875 14.226562 -9.71875 14.09375 -9.71875 L 2.921875 -9.71875 C 2.785156 -9.71875 2.671875 -9.671875 2.578125 -9.578125 C 2.484375 -9.484375 2.4375 -9.367188 2.4375 -9.234375 Z M 2.4375 -7.296875 "/></g></g><g style="fill:#000000;fill-opacity:1;"><g transform="translate(113.689023, 46.589848)"><path style="stroke:none" d="M 0.25 0 C 0.0820312 0 0 -0.0820312 0 -0.25 L 0 -2.1875 C 0 -2.351562 0.0820312 -2.4375 0.25 -2.4375 L 14.09375 -2.4375 C 14.226562 -2.4375 14.34375 -2.484375 14.4375 -2.578125 C 14.539062 -2.671875 14.59375 -2.785156 14.59375 -2.921875 L 14.59375 -4.375 C 14.59375 -4.507812 14.539062 -4.625 14.4375 -4.71875 C 14.34375 -4.8125 14.226562 -4.859375 14.09375 -4.859375 L 2.484375 -4.859375 C 1.765625 -4.859375 1.171875 -5.09375 0.703125 -5.5625 C 0.234375 -6.03125 0 -6.625 0 -7.34375 L 0 -9.671875 C 0 -10.390625 0.234375 -10.984375 0.703125 -11.453125 C 1.171875 -11.921875 1.765625 -12.15625 2.484375 -12.15625 L 16.78125 -12.15625 C 16.9375 -12.15625 17.015625 -12.070312 17.015625 -11.90625 L 17.015625 -9.96875 C 17.015625 -9.800781 16.9375 -9.71875 16.78125 -9.71875 L 2.921875 -9.71875 C 2.785156 -9.71875 2.671875 -9.671875 2.578125 -9.578125 C 2.484375 -9.484375 2.4375 -9.367188 2.4375 -9.234375 L 2.4375 -7.78125 C 2.4375 -7.644531 2.484375 -7.53125 2.578125 -7.4375 C 2.671875 -7.34375 2.785156 -7.296875 2.921875 -7.296875 L 14.53125 -7.296875 C 15.25 -7.296875 15.84375 -7.0625 16.3125 -6.59375 C 16.78125 -6.125 17.015625 -5.53125 17.015625 -4.8125 L 17.015625 -2.484375 C 17.015625 -1.765625 16.78125 -1.171875 16.3125 -0.703125 C 15.84375 -0.234375 15.25 0 14.53125 0 Z M 0.25 0 "/></g></g><g style="fill:#000000;fill-opacity:1;"><g transform="translate(133.134207, 46.589848)"><path style="stroke:none" d="M 0.25 0 C 0.0820312 0 0 -0.0820312 0 -0.25 L 0 -11.90625 C 0 -12.070312 0.0820312 -12.15625 0.25 -12.15625 L 2.1875 -12.15625 C 2.351562 -12.15625 2.4375 -12.070312 2.4375 -11.90625 L 2.4375 -7.296875 L 14.59375 -7.296875 L 14.59375 -11.90625 C 14.59375 -12.070312 14.671875 -12.15625 14.828125 -12.15625 L 16.78125 -12.15625 C 16.9375 -12.15625 17.015625 -12.070312 17.015625 -11.90625 L 17.015625 -0.25 C 17.015625 -0.0820312 16.9375 0 16.78125 0 L 14.828125 0 C 14.671875 0 14.59375 -0.0820312 14.59375 -0.25 L 14.59375 -4.859375 L 2.4375 -4.859375 L 2.4375 -0.25 C 2.4375 -0.0820312 2.351562 0 2.1875 0 Z M 0.25 0 "/></g></g><g style="fill:#000000;fill-opacity:1;"><g transform="translate(152.579391, 46.589848)"><path style="stroke:none" d="M 0.25 0 C 0.0820312 0 0 -0.0820312 0 -0.25 L 0 -11.90625 C 0 -12.070312 0.0820312 -12.15625 0.25 -12.15625 L 14.53125 -12.15625 C 15.25 -12.15625 15.84375 -11.921875 16.3125 -11.453125 C 16.78125 -10.984375 17.015625 -10.390625 17.015625 -9.671875 L 17.015625 -7.34375 C 17.015625 -6.625 16.78125 -6.03125 16.3125 -5.5625 C 15.84375 -5.09375 15.25 -4.859375 14.53125 -4.859375 L 14.296875 -4.859375 L 16 0 L 13.328125 0 L 11.625 -4.859375 L 2.4375 -4.859375 L 2.4375 -0.25 C 2.4375 -0.0820312 2.351562 0 2.1875 0 Z M 2.4375 -7.296875 L 14.09375 -7.296875 C 14.226562 -7.296875 14.34375 -7.34375 14.4375 -7.4375 C 14.539062 -7.53125 14.59375 -7.644531 14.59375 -7.78125 L 14.59375 -9.234375 C 14.59375 -9.367188 14.539062 -9.484375 14.4375 -9.578125 C 14.34375 -9.671875 14.226562 -9.71875 14.09375 -9.71875 L 2.4375 -9.71875 Z M 2.4375 -7.296875 "/></g></g><g style="fill:#000000;fill-opacity:1;"><g transform="translate(172.024575, 46.589848)"><path style="stroke:none" d="M 7.53125 0 C 7.375 0 7.296875 -0.0820312 7.296875 -0.25 L 7.296875 -9.71875 L 0.25 -9.71875 C 0.0820312 -9.71875 0 -9.800781 0 -9.96875 L 0 -11.90625 C 0 -12.070312 0.0820312 -12.15625 0.25 -12.15625 L 16.78125 -12.15625 C 16.9375 -12.15625 17.015625 -12.070312 17.015625 -11.90625 L 17.015625 -9.96875 C 17.015625 -9.800781 16.9375 -9.71875 16.78125 -9.71875 L 9.71875 -9.71875 L 9.71875 -0.25 C 9.71875 -0.0820312 9.640625 0 9.484375 0 Z M 7.53125 0 "/></g></g><g style="fill:#000000;fill-opacity:1;"><g transform="translate(191.469759, 46.589848)"><path style="stroke:none" d="M 2.484375 0 C 1.765625 0 1.171875 -0.234375 0.703125 -0.703125 C 0.234375 -1.171875 0 -1.765625 0 -2.484375 L 0 -11.90625 C 0 -12.070312 0.0820312 -12.15625 0.25 -12.15625 L 2.1875 -12.15625 C 2.351562 -12.15625 2.4375 -12.070312 2.4375 -11.90625 L 2.4375 -2.921875 C 2.4375 -2.785156 2.484375 -2.671875 2.578125 -2.578125 C 2.671875 -2.484375 2.785156 -2.4375 2.921875 -2.4375 L 16.78125 -2.4375 C 16.9375 -2.4375 17.015625 -2.351562 17.015625 -2.1875 L 17.015625 -0.25 C 17.015625 -0.0820312 16.9375 0 16.78125 0 Z M 2.484375 0 "/></g></g></g></svg>